<svg width="28" height="28" viewBox="0 0 28 28" fill="none" xmlns="http://www.w3.org/2000/svg">
<path d="M3.5 4.66666H5.83333L6.15152 8.16666M6.15152 8.16666L6.8224 15.5464C6.92104 16.6314 7.86996 17.4379 8.95668 17.3602L21.7241 16.4483C22.6632 16.3812 23.4283 15.6682 23.5615 14.7362L24.5 8.16666H6.15152Z" stroke="white" stroke-width="3" stroke-linecap="round" stroke-linejoin="round"/>
<path d="M10.5 23.3333C11.1443 23.3333 11.6667 22.811 11.6667 22.1667C11.6667 21.5223 11.1443 21 10.5 21C9.85568 21 9.33334 21.5223 9.33334 22.1667C9.33334 22.811 9.85568 23.3333 10.5 23.3333Z" stroke="white" stroke-width="3" stroke-linecap="round" stroke-linejoin="round"/>
<path d="M19.8333 23.3333C20.4777 23.3333 21 22.811 21 22.1667C21 21.5223 20.4777 21 19.8333 21C19.189 21 18.6667 21.5223 18.6667 22.1667C18.6667 22.811 19.189 23.3333 19.8333 23.3333Z" stroke="white" stroke-width="3" stroke-linecap="round" stroke-linejoin="round"/>
</svg>
