<svg width="209" height="87" viewBox="0 0 209 87" fill="none" xmlns="http://www.w3.org/2000/svg">
<path d="M80.9982 5.103L50.2662 37.588L19.5341 5.103C16.4236 1.86696 12.0689 0 7.5897 0H0V4.72962L27.1238 33.3562C43.423 50.6567 43.423 50.6567 44.294 50.6567H50.0173C54.4965 50.6567 58.8512 48.7897 61.9618 45.4292L85.6018 20.412V79.6567C85.6018 83.764 88.9612 87 93.0671 87H100.408L100.532 0.373393V0H92.9427C88.4635 0 84.1088 1.86696 80.9982 5.103Z" fill="white"/>
<path d="M128.002 5.103L158.734 37.588L189.466 5.103C192.576 1.86696 196.931 0 201.41 0H209V4.72962L181.876 33.3562C165.577 50.6567 165.577 50.6567 164.706 50.6567H158.983C154.504 50.6567 150.149 48.7897 147.038 45.4292L123.398 20.412V79.6567C123.398 83.764 120.039 87 115.933 87H108.592L108.468 0.373393V0H116.057C120.537 0 124.891 1.86696 128.002 5.103Z" fill="white"/>
</svg>
