<svg width="1152" height="46" viewBox="0 0 1152 46" fill="none" xmlns="http://www.w3.org/2000/svg">
<mask id="path-1-outside-1_37_36" maskUnits="userSpaceOnUse" x="0.50592" y="0.0400391" width="1152" height="46" fill="black">
<rect fill="white" x="0.50592" y="0.0400391" width="1152" height="46"/>
<path d="M1.50592 44V2.00004H15.6659V33.02H34.6259V44H1.50592ZM38.5372 44V2.00004H52.6972V44H38.5372ZM59.5137 44V2.00004H71.1537L87.9537 29.42H81.8337L98.1537 2.00004H109.794L109.914 44H97.0137L96.8937 21.44H98.9337L87.7737 40.22H81.5337L69.8937 21.44H72.4137V44H59.5137ZM116.76 44V2.00004H130.92V44H116.76ZM146.856 44V12.98H134.556V2.00004H173.316V12.98H161.016V44H146.856ZM189.954 17.6H208.674V27.8H189.954V17.6ZM190.914 33.32H211.914V44H176.994V2.00004H211.134V12.68H190.914V33.32ZM217.365 44V2.00004H238.065C242.745 2.00004 246.865 2.86004 250.425 4.58004C253.985 6.26004 256.765 8.66004 258.765 11.78C260.765 14.9 261.765 18.62 261.765 22.94C261.765 27.3 260.765 31.06 258.765 34.22C256.765 37.34 253.985 39.76 250.425 41.48C246.865 43.16 242.745 44 238.065 44H217.365ZM231.525 32.96H237.465C239.465 32.96 241.205 32.58 242.685 31.82C244.205 31.06 245.385 29.94 246.225 28.46C247.065 26.94 247.485 25.1 247.485 22.94C247.485 20.82 247.065 19.02 246.225 17.54C245.385 16.06 244.205 14.94 242.685 14.18C241.205 13.42 239.465 13.04 237.465 13.04H231.525V32.96ZM297.884 17.6H316.604V27.8H297.884V17.6ZM298.844 33.32H319.844V44H284.924V2.00004H319.064V12.68H298.844V33.32ZM325.295 44V2.00004H345.995C350.675 2.00004 354.795 2.86004 358.355 4.58004C361.915 6.26004 364.695 8.66004 366.695 11.78C368.695 14.9 369.695 18.62 369.695 22.94C369.695 27.3 368.695 31.06 366.695 34.22C364.695 37.34 361.915 39.76 358.355 41.48C354.795 43.16 350.675 44 345.995 44H325.295ZM339.455 32.96H345.395C347.395 32.96 349.135 32.58 350.615 31.82C352.135 31.06 353.315 29.94 354.155 28.46C354.995 26.94 355.415 25.1 355.415 22.94C355.415 20.82 354.995 19.02 354.155 17.54C353.315 16.06 352.135 14.94 350.615 14.18C349.135 13.42 347.395 13.04 345.395 13.04H339.455V32.96ZM374.865 44V2.00004H389.025V44H374.865ZM404.962 44V12.98H392.662V2.00004H431.422V12.98H419.122V44H404.962ZM435.1 44V2.00004H449.26V44H435.1ZM478.096 44.96C474.696 44.96 471.536 44.42 468.616 43.34C465.736 42.26 463.236 40.74 461.116 38.78C458.996 36.78 457.336 34.44 456.136 31.76C454.976 29.08 454.396 26.16 454.396 23C454.396 19.8 454.976 16.88 456.136 14.24C457.336 11.56 458.996 9.24004 461.116 7.28004C463.236 5.28004 465.736 3.74004 468.616 2.66004C471.536 1.58004 474.696 1.04004 478.096 1.04004C481.536 1.04004 484.696 1.58004 487.576 2.66004C490.456 3.74004 492.956 5.28004 495.076 7.28004C497.196 9.24004 498.836 11.56 499.996 14.24C501.196 16.88 501.796 19.8 501.796 23C501.796 26.16 501.196 29.08 499.996 31.76C498.836 34.44 497.196 36.78 495.076 38.78C492.956 40.74 490.456 42.26 487.576 43.34C484.696 44.42 481.536 44.96 478.096 44.96ZM478.096 33.5C479.416 33.5 480.636 33.26 481.756 32.78C482.916 32.3 483.916 31.62 484.756 30.74C485.636 29.82 486.316 28.72 486.796 27.44C487.276 26.12 487.516 24.64 487.516 23C487.516 21.36 487.276 19.9 486.796 18.62C486.316 17.3 485.636 16.2 484.756 15.32C483.916 14.4 482.916 13.7 481.756 13.22C480.636 12.74 479.416 12.5 478.096 12.5C476.776 12.5 475.536 12.74 474.376 13.22C473.256 13.7 472.256 14.4 471.376 15.32C470.536 16.2 469.876 17.3 469.396 18.62C468.916 19.9 468.676 21.36 468.676 23C468.676 24.64 468.916 26.12 469.396 27.44C469.876 28.72 470.536 29.82 471.376 30.74C472.256 31.62 473.256 32.3 474.376 32.78C475.536 33.26 476.776 33.5 478.096 33.5ZM506.936 44V2.00004H518.576L539.936 27.56H534.536V2.00004H548.336V44H536.696L515.336 18.44H520.736V44H506.936ZM573.147 44V2.00004H584.787L606.147 27.56H600.747V2.00004H614.547V44H602.907L581.547 18.44H586.947V44H573.147ZM634.569 19.88H653.049V30.56H634.569V19.88ZM635.529 44H621.369V2.00004H655.509V12.68H635.529V44ZM669.395 44V12.98H657.095V2.00004H695.855V12.98H683.555V44H669.395ZM709.844 44.6C707.044 44.6 704.284 44.3 701.564 43.7C698.844 43.1 696.644 42.32 694.964 41.36L698.684 32.42C700.244 33.34 702.044 34.06 704.084 34.58C706.164 35.1 708.184 35.36 710.144 35.36C711.784 35.36 712.884 35.22 713.444 34.94C714.044 34.66 714.344 34.28 714.344 33.8C714.344 33.32 714.004 32.98 713.324 32.78C712.644 32.54 711.744 32.36 710.624 32.24C709.504 32.12 708.264 31.98 706.904 31.82C705.584 31.62 704.244 31.34 702.884 30.98C701.524 30.62 700.284 30.08 699.164 29.36C698.044 28.64 697.144 27.68 696.464 26.48C695.784 25.24 695.444 23.68 695.444 21.8C695.444 19.72 696.064 17.84 697.304 16.16C698.584 14.48 700.464 13.14 702.944 12.14C705.464 11.1 708.564 10.58 712.244 10.58C714.644 10.58 717.044 10.8 719.444 11.24C721.844 11.68 723.904 12.36 725.624 13.28L721.904 22.22C720.224 21.3 718.564 20.68 716.924 20.36C715.324 20 713.824 19.82 712.424 19.82C710.704 19.82 709.524 19.98 708.884 20.3C708.284 20.62 707.984 20.98 707.984 21.38C707.984 21.86 708.324 22.22 709.004 22.46C709.684 22.7 710.584 22.88 711.704 23C712.824 23.12 714.044 23.28 715.364 23.48C716.724 23.64 718.064 23.92 719.384 24.32C720.744 24.68 721.984 25.22 723.104 25.94C724.224 26.66 725.124 27.64 725.804 28.88C726.484 30.08 726.824 31.62 726.824 33.5C726.824 35.46 726.204 37.3 724.964 39.02C723.724 40.7 721.844 42.06 719.324 43.1C716.804 44.1 713.644 44.6 709.844 44.6ZM744.778 44L763.138 2.00004H777.058L795.418 44H780.778L767.218 8.72004H772.738L759.178 44H744.778ZM755.698 36.68L759.298 26.48H778.618L782.218 36.68H755.698ZM808.475 44L790.715 2.00004H805.955L820.415 37.46H811.355L826.235 2.00004H840.155L822.395 44H808.475ZM835.481 44L853.841 2.00004H867.761L886.121 44H871.481L857.921 8.72004H863.441L849.881 44H835.481ZM846.401 36.68L850.001 26.48H869.321L872.921 36.68H846.401ZM888.381 44V2.00004H902.541V44H888.381ZM909.357 44V2.00004H923.517V33.02H942.477V44H909.357ZM942.415 44L960.775 2.00004H974.695L993.055 44H978.415L964.855 8.72004H970.375L956.815 44H942.415ZM953.335 36.68L956.935 26.48H976.255L979.855 36.68H953.335ZM995.315 44V2.00004H1017.75C1023.55 2.00004 1027.83 3.04004 1030.59 5.12004C1033.35 7.16004 1034.73 9.78004 1034.73 12.98C1034.73 15.1 1034.13 17 1032.93 18.68C1031.77 20.32 1030.07 21.62 1027.83 22.58C1025.59 23.54 1022.83 24.02 1019.55 24.02L1020.75 20.78C1024.03 20.78 1026.85 21.24 1029.21 22.16C1031.61 23.08 1033.45 24.42 1034.73 26.18C1036.05 27.9 1036.71 29.98 1036.71 32.42C1036.71 36.06 1035.19 38.9 1032.15 40.94C1029.15 42.98 1024.75 44 1018.95 44H995.315ZM1009.23 34.1H1017.75C1019.31 34.1 1020.47 33.82 1021.23 33.26C1022.03 32.7 1022.43 31.88 1022.43 30.8C1022.43 29.72 1022.03 28.9 1021.23 28.34C1020.47 27.78 1019.31 27.5 1017.75 27.5H1008.27V18.14H1015.83C1017.43 18.14 1018.59 17.88 1019.31 17.36C1020.07 16.8 1020.45 16.02 1020.45 15.02C1020.45 13.98 1020.07 13.2 1019.31 12.68C1018.59 12.16 1017.43 11.9 1015.83 11.9H1009.23V34.1ZM1041.72 44V2.00004H1055.88V33.02H1074.84V44H1041.72ZM1091.71 17.6H1110.43V27.8H1091.71V17.6ZM1092.67 33.32H1113.67V44H1078.75V2.00004H1112.89V12.68H1092.67V33.32ZM1142.81 44.6C1140.57 44.6 1138.69 43.88 1137.17 42.44C1135.65 40.96 1134.89 39.08 1134.89 36.8C1134.89 34.48 1135.65 32.62 1137.17 31.22C1138.69 29.82 1140.57 29.12 1142.81 29.12C1145.05 29.12 1146.93 29.82 1148.45 31.22C1149.97 32.62 1150.73 34.48 1150.73 36.8C1150.73 39.08 1149.97 40.96 1148.45 42.44C1146.93 43.88 1145.05 44.6 1142.81 44.6Z"/>
</mask>
<path d="M1.50592 44V2.00004H15.6659V33.02H34.6259V44H1.50592ZM38.5372 44V2.00004H52.6972V44H38.5372ZM59.5137 44V2.00004H71.1537L87.9537 29.42H81.8337L98.1537 2.00004H109.794L109.914 44H97.0137L96.8937 21.44H98.9337L87.7737 40.22H81.5337L69.8937 21.44H72.4137V44H59.5137ZM116.76 44V2.00004H130.92V44H116.76ZM146.856 44V12.98H134.556V2.00004H173.316V12.98H161.016V44H146.856ZM189.954 17.6H208.674V27.8H189.954V17.6ZM190.914 33.32H211.914V44H176.994V2.00004H211.134V12.68H190.914V33.32ZM217.365 44V2.00004H238.065C242.745 2.00004 246.865 2.86004 250.425 4.58004C253.985 6.26004 256.765 8.66004 258.765 11.78C260.765 14.9 261.765 18.62 261.765 22.94C261.765 27.3 260.765 31.06 258.765 34.22C256.765 37.34 253.985 39.76 250.425 41.48C246.865 43.16 242.745 44 238.065 44H217.365ZM231.525 32.96H237.465C239.465 32.96 241.205 32.58 242.685 31.82C244.205 31.06 245.385 29.94 246.225 28.46C247.065 26.94 247.485 25.1 247.485 22.94C247.485 20.82 247.065 19.02 246.225 17.54C245.385 16.06 244.205 14.94 242.685 14.18C241.205 13.42 239.465 13.04 237.465 13.04H231.525V32.96ZM297.884 17.6H316.604V27.8H297.884V17.6ZM298.844 33.32H319.844V44H284.924V2.00004H319.064V12.68H298.844V33.32ZM325.295 44V2.00004H345.995C350.675 2.00004 354.795 2.86004 358.355 4.58004C361.915 6.26004 364.695 8.66004 366.695 11.78C368.695 14.9 369.695 18.62 369.695 22.94C369.695 27.3 368.695 31.06 366.695 34.22C364.695 37.34 361.915 39.76 358.355 41.48C354.795 43.16 350.675 44 345.995 44H325.295ZM339.455 32.96H345.395C347.395 32.96 349.135 32.58 350.615 31.82C352.135 31.06 353.315 29.94 354.155 28.46C354.995 26.94 355.415 25.1 355.415 22.94C355.415 20.82 354.995 19.02 354.155 17.54C353.315 16.06 352.135 14.94 350.615 14.18C349.135 13.42 347.395 13.04 345.395 13.04H339.455V32.96ZM374.865 44V2.00004H389.025V44H374.865ZM404.962 44V12.98H392.662V2.00004H431.422V12.98H419.122V44H404.962ZM435.1 44V2.00004H449.26V44H435.1ZM478.096 44.96C474.696 44.96 471.536 44.42 468.616 43.34C465.736 42.26 463.236 40.74 461.116 38.78C458.996 36.78 457.336 34.44 456.136 31.76C454.976 29.08 454.396 26.16 454.396 23C454.396 19.8 454.976 16.88 456.136 14.24C457.336 11.56 458.996 9.24004 461.116 7.28004C463.236 5.28004 465.736 3.74004 468.616 2.66004C471.536 1.58004 474.696 1.04004 478.096 1.04004C481.536 1.04004 484.696 1.58004 487.576 2.66004C490.456 3.74004 492.956 5.28004 495.076 7.28004C497.196 9.24004 498.836 11.56 499.996 14.24C501.196 16.88 501.796 19.8 501.796 23C501.796 26.16 501.196 29.08 499.996 31.76C498.836 34.44 497.196 36.78 495.076 38.78C492.956 40.74 490.456 42.26 487.576 43.34C484.696 44.42 481.536 44.96 478.096 44.96ZM478.096 33.5C479.416 33.5 480.636 33.26 481.756 32.78C482.916 32.3 483.916 31.62 484.756 30.74C485.636 29.82 486.316 28.72 486.796 27.44C487.276 26.12 487.516 24.64 487.516 23C487.516 21.36 487.276 19.9 486.796 18.62C486.316 17.3 485.636 16.2 484.756 15.32C483.916 14.4 482.916 13.7 481.756 13.22C480.636 12.74 479.416 12.5 478.096 12.5C476.776 12.5 475.536 12.74 474.376 13.22C473.256 13.7 472.256 14.4 471.376 15.32C470.536 16.2 469.876 17.3 469.396 18.62C468.916 19.9 468.676 21.36 468.676 23C468.676 24.64 468.916 26.12 469.396 27.44C469.876 28.72 470.536 29.82 471.376 30.74C472.256 31.62 473.256 32.3 474.376 32.78C475.536 33.26 476.776 33.5 478.096 33.5ZM506.936 44V2.00004H518.576L539.936 27.56H534.536V2.00004H548.336V44H536.696L515.336 18.44H520.736V44H506.936ZM573.147 44V2.00004H584.787L606.147 27.56H600.747V2.00004H614.547V44H602.907L581.547 18.44H586.947V44H573.147ZM634.569 19.88H653.049V30.56H634.569V19.88ZM635.529 44H621.369V2.00004H655.509V12.68H635.529V44ZM669.395 44V12.98H657.095V2.00004H695.855V12.98H683.555V44H669.395ZM709.844 44.6C707.044 44.6 704.284 44.3 701.564 43.7C698.844 43.1 696.644 42.32 694.964 41.36L698.684 32.42C700.244 33.34 702.044 34.06 704.084 34.58C706.164 35.1 708.184 35.36 710.144 35.36C711.784 35.36 712.884 35.22 713.444 34.94C714.044 34.66 714.344 34.28 714.344 33.8C714.344 33.32 714.004 32.98 713.324 32.78C712.644 32.54 711.744 32.36 710.624 32.24C709.504 32.12 708.264 31.98 706.904 31.82C705.584 31.62 704.244 31.34 702.884 30.98C701.524 30.62 700.284 30.08 699.164 29.36C698.044 28.64 697.144 27.68 696.464 26.48C695.784 25.24 695.444 23.68 695.444 21.8C695.444 19.72 696.064 17.84 697.304 16.16C698.584 14.48 700.464 13.14 702.944 12.14C705.464 11.1 708.564 10.58 712.244 10.58C714.644 10.58 717.044 10.8 719.444 11.24C721.844 11.68 723.904 12.36 725.624 13.28L721.904 22.22C720.224 21.3 718.564 20.68 716.924 20.36C715.324 20 713.824 19.82 712.424 19.82C710.704 19.82 709.524 19.98 708.884 20.3C708.284 20.62 707.984 20.98 707.984 21.38C707.984 21.86 708.324 22.22 709.004 22.46C709.684 22.7 710.584 22.88 711.704 23C712.824 23.12 714.044 23.28 715.364 23.48C716.724 23.64 718.064 23.92 719.384 24.32C720.744 24.68 721.984 25.22 723.104 25.94C724.224 26.66 725.124 27.64 725.804 28.88C726.484 30.08 726.824 31.62 726.824 33.5C726.824 35.46 726.204 37.3 724.964 39.02C723.724 40.7 721.844 42.06 719.324 43.1C716.804 44.1 713.644 44.6 709.844 44.6ZM744.778 44L763.138 2.00004H777.058L795.418 44H780.778L767.218 8.72004H772.738L759.178 44H744.778ZM755.698 36.68L759.298 26.48H778.618L782.218 36.68H755.698ZM808.475 44L790.715 2.00004H805.955L820.415 37.46H811.355L826.235 2.00004H840.155L822.395 44H808.475ZM835.481 44L853.841 2.00004H867.761L886.121 44H871.481L857.921 8.72004H863.441L849.881 44H835.481ZM846.401 36.68L850.001 26.48H869.321L872.921 36.68H846.401ZM888.381 44V2.00004H902.541V44H888.381ZM909.357 44V2.00004H923.517V33.02H942.477V44H909.357ZM942.415 44L960.775 2.00004H974.695L993.055 44H978.415L964.855 8.72004H970.375L956.815 44H942.415ZM953.335 36.68L956.935 26.48H976.255L979.855 36.68H953.335ZM995.315 44V2.00004H1017.75C1023.55 2.00004 1027.83 3.04004 1030.59 5.12004C1033.35 7.16004 1034.73 9.78004 1034.73 12.98C1034.73 15.1 1034.13 17 1032.93 18.68C1031.77 20.32 1030.07 21.62 1027.83 22.58C1025.59 23.54 1022.83 24.02 1019.55 24.02L1020.75 20.78C1024.03 20.78 1026.85 21.24 1029.21 22.16C1031.61 23.08 1033.45 24.42 1034.73 26.18C1036.05 27.9 1036.71 29.98 1036.71 32.42C1036.71 36.06 1035.19 38.9 1032.15 40.94C1029.15 42.98 1024.75 44 1018.95 44H995.315ZM1009.23 34.1H1017.75C1019.31 34.1 1020.47 33.82 1021.23 33.26C1022.03 32.7 1022.43 31.88 1022.43 30.8C1022.43 29.72 1022.03 28.9 1021.23 28.34C1020.47 27.78 1019.31 27.5 1017.75 27.5H1008.27V18.14H1015.83C1017.43 18.14 1018.59 17.88 1019.31 17.36C1020.07 16.8 1020.45 16.02 1020.45 15.02C1020.45 13.98 1020.07 13.2 1019.31 12.68C1018.59 12.16 1017.43 11.9 1015.83 11.9H1009.23V34.1ZM1041.72 44V2.00004H1055.88V33.02H1074.84V44H1041.72ZM1091.71 17.6H1110.43V27.8H1091.71V17.6ZM1092.67 33.32H1113.67V44H1078.75V2.00004H1112.89V12.68H1092.67V33.32ZM1142.81 44.6C1140.57 44.6 1138.69 43.88 1137.17 42.44C1135.65 40.96 1134.89 39.08 1134.89 36.8C1134.89 34.48 1135.65 32.62 1137.17 31.22C1138.69 29.82 1140.57 29.12 1142.81 29.12C1145.05 29.12 1146.93 29.82 1148.45 31.22C1149.97 32.62 1150.73 34.48 1150.73 36.8C1150.73 39.08 1149.97 40.96 1148.45 42.44C1146.93 43.88 1145.05 44.6 1142.81 44.6Z" stroke="white" stroke-width="2" mask="url(#path-1-outside-1_37_36)"/>
</svg>
